<svg version="1.1" id="Layer_1" xmlns="http://www.w3.org/2000/svg" xmlns:xlink="http://www.w3.org/1999/xlink" x="0px" y="0px"
	 width="100%" viewBox="0 0 1024 826" enable-background="new 0 0 1024 826" xml:space="preserve">
<path fill="#212020" opacity="1.000000" stroke="none" 
	d="
M586.000000,827.000000 
	C390.666656,827.000000 195.833328,827.000000 1.000000,827.000000 
	C1.000000,551.666687 1.000000,276.333344 1.000000,1.000000 
	C342.333344,1.000000 683.666687,1.000000 1025.000000,1.000000 
	C1025.000000,276.333344 1025.000000,551.666687 1025.000000,827.000000 
	C878.833313,827.000000 732.666687,827.000000 586.000000,827.000000 
M897.107178,356.272064 
	C895.749695,356.210052 894.392212,356.148041 892.106812,355.916443 
	C883.617859,356.154022 875.128967,356.391632 866.021484,356.326019 
	C865.127686,356.423553 864.233948,356.521118 862.432312,356.367554 
	C854.502502,356.456024 846.572632,356.544495 838.245056,356.332153 
	C837.881165,356.230103 837.579346,356.325043 836.463501,356.364746 
	C829.188293,356.453491 821.913147,356.542267 813.964539,356.326569 
	C812.757324,356.423859 811.550110,356.521179 809.421326,356.365112 
	C807.263489,356.261810 805.104797,356.054413 802.947876,356.071411 
	C782.181091,356.234863 761.414612,356.436127 739.911804,356.328644 
	C736.593750,356.295807 733.275696,356.262970 729.087952,356.010132 
	C726.405518,356.077850 723.723145,356.145538 720.247864,355.959259 
	C719.153320,356.039978 718.058777,356.120728 716.270874,355.993652 
	C715.078979,356.181580 713.887024,356.369507 711.991516,356.314331 
	C710.770508,356.418884 709.549561,356.523468 707.447571,356.386597 
	C704.624329,356.220215 701.801270,355.911713 698.977905,355.909027 
	C662.678528,355.874634 626.379089,355.869659 590.079773,355.913483 
	C587.606445,355.916473 585.133728,356.368286 582.025146,356.333984 
	C581.117615,356.409760 580.210022,356.485504 578.526367,356.255188 
	C575.616455,356.406677 572.706604,356.558136 569.121094,356.842682 
	C561.633423,364.872833 554.090698,372.852509 546.668640,380.942841 
	C526.289307,403.157013 505.953918,425.411591 485.641296,447.686829 
	C484.974854,448.417633 484.744049,449.545654 483.951813,451.267426 
	C486.734436,451.267426 488.695496,451.267517 490.656586,451.267426 
	C583.988342,451.263184 677.320129,451.255585 770.651855,451.270416 
	C773.478760,451.270874 776.309875,451.665497 779.131531,451.591400 
	C782.979187,451.490448 783.600464,453.459900 782.947021,456.679932 
	C782.053101,461.084412 781.469604,465.557007 780.453186,469.930695 
	C771.294312,509.342194 753.784485,544.778137 728.938293,576.575195 
	C713.100281,596.843933 694.059753,613.939636 673.422485,630.011230 
	C671.212402,631.465393 668.963379,632.863953 666.797913,634.381897 
	C625.852112,663.083984 580.034973,678.690613 530.587463,683.056702 
	C492.203400,686.445923 454.109833,683.649658 416.922638,672.263733 
	C361.815063,655.390930 315.113953,625.827271 278.595459,580.960999 
	C243.265076,537.554382 223.640457,487.906647 220.486130,431.891846 
	C218.562683,397.735291 222.520721,364.313019 234.460037,332.203430 
	C259.913025,263.750061 306.771393,214.580170 372.183441,183.206116 
	C408.554443,165.761230 447.471375,157.903778 487.846222,157.900436 
	C578.001343,157.892990 668.156494,158.031281 758.311462,157.928619 
	C760.695740,157.925903 763.675598,156.399918 765.356445,154.619873 
	C772.440369,147.118027 779.107910,139.224411 785.979736,131.520538 
	C809.589294,105.052544 833.225586,78.608315 856.819580,52.126518 
	C857.482849,51.382042 857.785095,50.315933 858.568604,48.790623 
	C856.482422,48.790623 855.176270,48.790775 853.870117,48.790604 
	C739.884033,48.775787 625.897888,48.694405 511.911896,48.795509 
	C485.283539,48.819130 458.656189,48.068390 432.092651,51.798126 
	C398.548859,56.507942 366.208252,65.444954 335.290649,78.890450 
	C275.322693,104.969429 224.215027,142.990402 183.535034,194.566971 
	C153.886581,232.157059 132.090424,273.825195 119.238457,319.927704 
	C108.841339,357.224182 103.831848,395.320831 107.080956,434.067535 
	C108.789169,454.438660 110.623436,474.968781 114.775063,494.933350 
	C126.649902,552.037659 152.238510,602.873840 189.012711,647.990295 
	C218.739868,684.461121 253.833984,714.800232 294.455566,738.789490 
	C344.070740,768.089905 397.337830,786.062927 455.336975,792.536255 
	C492.093414,796.914551 528.776123,795.692627 565.344849,790.619873 
	C600.516602,785.740845 634.239258,775.680481 666.721375,761.341919 
	C719.436035,738.072083 765.138306,705.214172 803.597961,662.224121 
	C835.943604,626.068420 860.949280,585.478821 877.893982,540.043091 
	C886.868652,515.978088 893.705017,491.256927 897.095398,465.732300 
	C898.583313,454.530273 899.368774,443.230377 900.309875,431.961304 
	C902.380676,407.165253 901.411438,382.467651 897.597717,357.351654 
	C897.492188,357.211151 897.386719,357.070679 897.107178,356.272064 
M654.553406,276.057983 
	C676.257874,252.259918 697.962341,228.461838 720.602112,203.638275 
	C717.092896,203.448059 715.012207,203.237335 712.931396,203.236633 
	C636.272644,203.210724 559.613770,203.129303 482.955383,203.289673 
	C473.328918,203.309814 463.618073,204.029648 454.095978,205.437607 
	C422.056549,210.175034 392.147705,220.859970 365.035461,238.848618 
	C308.217712,276.546539 273.815643,328.201630 266.842499,396.858582 
	C262.735504,437.295746 269.723053,475.900787 287.309113,512.414612 
	C300.101868,538.976196 318.040039,561.732544 340.438019,581.064270 
	C366.465210,603.528320 395.893372,619.615112 428.869507,629.007996 
	C459.305817,637.677490 490.459930,639.302917 521.917236,637.105103 
	C547.330383,635.329468 571.418152,628.652344 594.285034,617.634216 
	C623.565247,603.525879 648.399353,583.748230 668.309753,557.993652 
	C672.401611,552.700623 675.801392,546.872620 680.425232,539.932861 
	C675.923767,539.932861 673.164795,539.932800 670.405823,539.932861 
	C611.912048,539.934143 553.418335,539.908142 494.924591,539.955994 
	C480.280701,539.968018 466.224304,537.292847 452.416504,532.370361 
	C402.208374,514.471069 369.545380,461.945709 374.727600,408.957336 
	C377.113892,384.557739 385.400513,362.612854 401.169189,343.836395 
	C424.879028,315.604095 455.292145,300.471283 492.265747,300.116791 
	C537.423279,299.683868 582.588501,300.008484 627.750000,300.145813 
	C631.447876,300.157074 633.967468,299.004578 636.343201,296.249115 
	C642.105896,289.565491 648.138550,283.114655 654.553406,276.057983 
z"/>
<path fill="#FDFDFD" opacity="1.000000" stroke="none" 
	d="
M454.659973,791.990845 
	C397.337830,786.062927 344.070740,768.089905 294.455566,738.789490 
	C253.833984,714.800232 218.739868,684.461121 189.012711,647.990295 
	C152.238510,602.873840 126.649902,552.037659 114.775063,494.933350 
	C110.623436,474.968781 108.789169,454.438660 107.080956,434.067535 
	C103.831848,395.320831 108.841339,357.224182 119.238457,319.927704 
	C132.090424,273.825195 153.886581,232.157059 183.535034,194.566971 
	C224.215027,142.990402 275.322693,104.969429 335.290649,78.890450 
	C366.208252,65.444954 398.548859,56.507942 432.092651,51.798126 
	C458.656189,48.068390 485.283539,48.819130 511.911896,48.795509 
	C625.897888,48.694405 739.884033,48.775787 853.870117,48.790604 
	C855.176270,48.790775 856.482422,48.790623 858.568604,48.790623 
	C857.785095,50.315933 857.482849,51.382042 856.819580,52.126518 
	C833.225586,78.608315 809.589294,105.052544 785.979736,131.520538 
	C779.107910,139.224411 772.440369,147.118027 765.356445,154.619873 
	C763.675598,156.399918 760.695740,157.925903 758.311462,157.928619 
	C668.156494,158.031281 578.001343,157.892990 487.846222,157.900436 
	C447.471375,157.903778 408.554443,165.761230 372.183441,183.206116 
	C306.771393,214.580170 259.913025,263.750061 234.460037,332.203430 
	C222.520721,364.313019 218.562683,397.735291 220.486130,431.891846 
	C223.640457,487.906647 243.265076,537.554382 278.595459,580.960999 
	C315.113953,625.827271 361.815063,655.390930 416.922638,672.263733 
	C454.109833,683.649658 492.203400,686.445923 530.587463,683.056702 
	C580.034973,678.690613 625.852112,663.083984 666.797913,634.381897 
	C668.963379,632.863953 671.212402,631.465393 673.879456,630.346069 
	C673.290588,632.754944 672.542664,635.057312 671.154541,636.869141 
	C646.639221,668.868103 620.666870,699.437195 588.745239,724.559204 
	C551.333923,754.001465 510.291565,776.096863 464.228729,788.594421 
	C460.971741,789.478149 457.846497,790.847351 454.659973,791.990845 
z"/>
<path fill="#D71C30" opacity="1.000000" stroke="none" 
	d="
M654.307922,276.314026 
	C648.138550,283.114655 642.105896,289.565491 636.343201,296.249115 
	C633.967468,299.004578 631.447876,300.157074 627.750000,300.145813 
	C582.588501,300.008484 537.423279,299.683868 492.265747,300.116791 
	C455.292145,300.471283 424.879028,315.604095 401.169189,343.836395 
	C385.400513,362.612854 377.113892,384.557739 374.727600,408.957336 
	C369.545380,461.945709 402.208374,514.471069 452.416504,532.370361 
	C466.224304,537.292847 480.280701,539.968018 494.924591,539.955994 
	C553.418335,539.908142 611.912048,539.934143 670.405823,539.932861 
	C673.164795,539.932800 675.923767,539.932861 680.425232,539.932861 
	C675.801392,546.872620 672.401611,552.700623 668.309753,557.993652 
	C648.399353,583.748230 623.565247,603.525879 594.285034,617.634216 
	C571.418152,628.652344 547.330383,635.329468 521.917236,637.105103 
	C490.459930,639.302917 459.305817,637.677490 428.869507,629.007996 
	C395.893372,619.615112 366.465210,603.528320 340.438019,581.064270 
	C318.040039,561.732544 300.101868,538.976196 287.309113,512.414612 
	C269.723053,475.900787 262.735504,437.295746 266.842499,396.858582 
	C273.815643,328.201630 308.217712,276.546539 365.035461,238.848618 
	C392.147705,220.859970 422.056549,210.175034 454.095978,205.437607 
	C463.618073,204.029648 473.328918,203.309814 482.955383,203.289673 
	C559.613770,203.129303 636.272644,203.210724 712.931396,203.236633 
	C715.012207,203.237335 717.092896,203.448059 720.602112,203.638275 
	C697.962341,228.461838 676.257874,252.259918 654.307922,276.314026 
z"/>
<path fill="#D71C2F" opacity="1.000000" stroke="none" 
	d="
M454.998474,792.263550 
	C457.846497,790.847351 460.971741,789.478149 464.228729,788.594421 
	C510.291565,776.096863 551.333923,754.001465 588.745239,724.559204 
	C620.666870,699.437195 646.639221,668.868103 671.154541,636.869141 
	C672.542664,635.057312 673.290588,632.754944 674.236511,630.380249 
	C694.059753,613.939636 713.100281,596.843933 728.938293,576.575195 
	C753.784485,544.778137 771.294312,509.342194 780.453186,469.930695 
	C781.469604,465.557007 782.053101,461.084412 782.947021,456.679932 
	C783.600464,453.459900 782.979187,451.490448 779.131531,451.591400 
	C776.309875,451.665497 773.478760,451.270874 770.651855,451.270416 
	C677.320129,451.255585 583.988342,451.263184 490.656586,451.267426 
	C488.695496,451.267517 486.734436,451.267426 483.951813,451.267426 
	C484.744049,449.545654 484.974854,448.417633 485.641296,447.686829 
	C505.953918,425.411591 526.289307,403.157013 546.668640,380.942841 
	C554.090698,372.852509 561.633423,364.872833 569.755737,357.081970 
	C573.361145,357.067902 576.331787,356.814575 579.302490,356.561249 
	C580.210022,356.485504 581.117615,356.409760 582.650146,356.785645 
	C588.956848,357.494171 594.637390,357.936798 600.320496,357.972595 
	C616.367188,358.073700 632.414978,358.008972 648.462341,358.007660 
	C666.395264,358.006195 684.328369,358.046143 702.260681,357.939728 
	C704.285828,357.927734 706.306030,357.085358 708.328552,356.628021 
	C709.549561,356.523468 710.770508,356.418884 712.583801,356.730347 
	C714.438782,356.831390 715.701538,356.516418 716.964233,356.201477 
	C718.058777,356.120728 719.153320,356.039978 720.770325,356.432007 
	C724.321838,358.487976 727.282837,359.196991 729.957642,356.230133 
	C733.275696,356.262970 736.593750,356.295807 740.594177,356.787476 
	C751.715759,357.818237 762.150940,358.743500 772.595398,358.863953 
	C783.323364,358.987640 794.062683,358.383087 804.791260,357.951904 
	C806.656677,357.876923 808.493103,357.081299 810.342896,356.618530 
	C811.550110,356.521179 812.757324,356.423859 814.639893,356.796814 
	C820.012207,357.513397 824.710754,357.964020 829.405457,357.926422 
	C832.053528,357.905212 834.695068,357.080017 837.339600,356.616974 
	C837.579346,356.325043 837.881165,356.230103 838.782471,356.800171 
	C845.333862,357.513367 851.347046,357.890686 857.362427,357.928894 
	C859.352112,357.941559 861.347412,357.080322 863.340149,356.618652 
	C864.233948,356.521118 865.127686,356.423553 866.669067,356.796051 
	C877.419617,357.470032 887.522644,357.673981 897.625671,357.877930 
	C901.411438,382.467651 902.380676,407.165253 900.309875,431.961304 
	C899.368774,443.230377 898.583313,454.530273 897.095398,465.732300 
	C893.705017,491.256927 886.868652,515.978088 877.893982,540.043091 
	C860.949280,585.478821 835.943604,626.068420 803.597961,662.224121 
	C765.138306,705.214172 719.436035,738.072083 666.721375,761.341919 
	C634.239258,775.680481 600.516602,785.740845 565.344849,790.619873 
	C528.776123,795.692627 492.093414,796.914551 454.998474,792.263550 
z"/>
<path fill="#E91F33" opacity="1.000000" stroke="none" 
	d="
M707.888062,356.507324 
	C706.306030,357.085358 704.285828,357.927734 702.260681,357.939728 
	C684.328369,358.046143 666.395264,358.006195 648.462341,358.007660 
	C632.414978,358.008972 616.367188,358.073700 600.320496,357.972595 
	C594.637390,357.936798 588.956848,357.494171 582.967896,356.924316 
	C585.133728,356.368286 587.606445,355.916473 590.079773,355.913483 
	C626.379089,355.869659 662.678528,355.874634 698.977905,355.909027 
	C701.801270,355.911713 704.624329,356.220215 707.888062,356.507324 
z"/>
<path fill="#E91F33" opacity="1.000000" stroke="none" 
	d="
M809.882080,356.491821 
	C808.493103,357.081299 806.656677,357.876923 804.791260,357.951904 
	C794.062683,358.383087 783.323364,358.987640 772.595398,358.863953 
	C762.150940,358.743500 751.715759,357.818237 740.962280,356.936462 
	C761.414612,356.436127 782.181091,356.234863 802.947876,356.071411 
	C805.104797,356.054413 807.263489,356.261810 809.882080,356.491821 
z"/>
<path fill="#E91F33" opacity="1.000000" stroke="none" 
	d="
M897.611694,357.614807 
	C887.522644,357.673981 877.419617,357.470032 866.978271,356.947662 
	C875.128967,356.391632 883.617859,356.154022 892.842285,356.248230 
	C894.812256,356.696747 896.046692,356.813507 897.281189,356.930237 
	C897.386719,357.070679 897.492188,357.211151 897.611694,357.614807 
z"/>
<path fill="#E91F33" opacity="1.000000" stroke="none" 
	d="
M862.886230,356.493103 
	C861.347412,357.080322 859.352112,357.941559 857.362427,357.928894 
	C851.347046,357.890686 845.333862,357.513367 838.981323,356.950592 
	C846.572632,356.544495 854.502502,356.456024 862.886230,356.493103 
z"/>
<path fill="#E91F33" opacity="1.000000" stroke="none" 
	d="
M836.901550,356.490845 
	C834.695068,357.080017 832.053528,357.905212 829.405457,357.926422 
	C824.710754,357.964020 820.012207,357.513397 814.976562,356.949036 
	C821.913147,356.542267 829.188293,356.453491 836.901550,356.490845 
z"/>
<path fill="#E91F33" opacity="1.000000" stroke="none" 
	d="
M729.522827,356.120117 
	C727.282837,359.196991 724.321838,358.487976 721.166748,356.558960 
	C723.723145,356.145538 726.405518,356.077850 729.522827,356.120117 
z"/>
<path fill="#E91F33" opacity="1.000000" stroke="none" 
	d="
M578.914429,356.408203 
	C576.331787,356.814575 573.361145,357.067902 570.093567,357.015411 
	C572.706604,356.558136 575.616455,356.406677 578.914429,356.408203 
z"/>
<path fill="#D71C2F" opacity="1.000000" stroke="none" 
	d="
M897.194214,356.601135 
	C896.046692,356.813507 894.812256,356.696747 893.306274,356.333008 
	C894.392212,356.148041 895.749695,356.210052 897.194214,356.601135 
z"/>
<path fill="#E91F33" opacity="1.000000" stroke="none" 
	d="
M716.617554,356.097534 
	C715.701538,356.516418 714.438782,356.831390 712.935608,356.851868 
	C713.887024,356.369507 715.078979,356.181580 716.617554,356.097534 
z"/>
</svg>